<svg width="37" height="36" viewBox="0 0 37 36" fill="none" xmlns="http://www.w3.org/2000/svg">
<path fill-rule="evenodd" clip-rule="evenodd" d="M4.65214 4.24957H0V2.74957H4.65214C6.00406 2.74957 7.15546 3.73221 7.36796 5.06732L7.99688 9.01882H29.7121C30.8545 9.01882 31.6906 10.0956 31.4076 11.2023L29.5067 18.6364C29.0823 20.2963 27.5869 21.4574 25.8736 21.4574H9.9766L10.3874 24.0383C10.484 24.6452 11.0073 25.0918 11.6218 25.0918H28.203V26.5918H11.6218C10.2699 26.5918 9.11852 25.6092 8.90602 24.2741L5.8866 5.3031C5.79002 4.69623 5.26665 4.24957 4.65214 4.24957ZM9.73786 19.9574H25.8736C26.9016 19.9574 27.7988 19.2607 28.0535 18.2648L29.9543 10.8308C29.9948 10.6726 29.8753 10.5188 29.7121 10.5188H8.23562L9.73786 19.9574Z" fill="black"/>
<path fill-rule="evenodd" clip-rule="evenodd" d="M13.5685 33.8258C14.3174 33.8258 15.0179 33.1799 15.0179 32.2656C15.0179 31.3513 14.3174 30.7054 13.5685 30.7054C12.8197 30.7054 12.1191 31.3513 12.1191 32.2656C12.1191 33.1799 12.8197 33.8258 13.5685 33.8258ZM13.5685 35.3258C15.1975 35.3258 16.5179 33.9557 16.5179 32.2656C16.5179 30.5755 15.1975 29.2054 13.5685 29.2054C11.9396 29.2054 10.6191 30.5755 10.6191 32.2656C10.6191 33.9557 11.9396 35.3258 13.5685 35.3258Z" fill="black"/>
<path fill-rule="evenodd" clip-rule="evenodd" d="M26.5471 33.8258C27.2959 33.8258 27.9965 33.1799 27.9965 32.2656C27.9965 31.3513 27.2959 30.7054 26.5471 30.7054C25.7982 30.7054 25.0977 31.3513 25.0977 32.2656C25.0977 33.1799 25.7982 33.8258 26.5471 33.8258ZM26.5471 35.3258C28.176 35.3258 29.4965 33.9557 29.4965 32.2656C29.4965 30.5755 28.176 29.2054 26.5471 29.2054C24.9181 29.2054 23.5977 30.5755 23.5977 32.2656C23.5977 33.9557 24.9181 35.3258 26.5471 35.3258Z" fill="black"/>
<path d="M37 7C37 10.866 33.866 14 30 14C26.134 14 23 10.866 23 7C23 3.13401 26.134 0 30 0C33.866 0 37 3.13401 37 7Z" fill="#E8AA31"/>
<path d="M29.6728 10.064C29.2301 10.064 28.8354 9.952 28.4888 9.728C28.1474 9.49867 27.8781 9.168 27.6808 8.736C27.4834 8.304 27.3848 7.792 27.3848 7.2C27.3848 6.608 27.4834 6.096 27.6808 5.664C27.8781 5.232 28.1474 4.904 28.4888 4.68C28.8354 4.45067 29.2301 4.336 29.6728 4.336C30.1101 4.336 30.4994 4.45067 30.8408 4.68C31.1874 4.904 31.4594 5.232 31.6568 5.664C31.8541 6.096 31.9528 6.608 31.9528 7.2C31.9528 7.792 31.8541 8.304 31.6568 8.736C31.4594 9.168 31.1874 9.49867 30.8408 9.728C30.4994 9.952 30.1101 10.064 29.6728 10.064ZM29.6728 9.352C30.1208 9.352 30.4781 9.168 30.7448 8.8C31.0168 8.432 31.1528 7.89867 31.1528 7.2C31.1528 6.50133 31.0168 5.968 30.7448 5.6C30.4781 5.232 30.1208 5.048 29.6728 5.048C29.2194 5.048 28.8568 5.232 28.5848 5.6C28.3181 5.968 28.1848 6.50133 28.1848 7.2C28.1848 7.89867 28.3181 8.432 28.5848 8.8C28.8568 9.168 29.2194 9.352 29.6728 9.352Z" fill="white"/>
</svg>
